<svg id="visual" viewBox="0 0 900 600" width="900" height="600" xmlns="http://www.w3.org/2000/svg" xmlns:xlink="http://www.w3.org/1999/xlink" version="1.1"><rect x="0" y="0" width="900" height="600" fill="#ffffff"></rect><defs><linearGradient id="grad1_0" x1="33.3%" y1="0%" x2="100%" y2="100%"><stop offset="20%" stop-color="#9fe5c3" stop-opacity="1"></stop><stop offset="80%" stop-color="#9fe5c3" stop-opacity="1"></stop></linearGradient></defs><defs><linearGradient id="grad1_1" x1="33.3%" y1="0%" x2="100%" y2="100%"><stop offset="20%" stop-color="#9fe5c3" stop-opacity="1"></stop><stop offset="80%" stop-color="#b8ecd2" stop-opacity="1"></stop></linearGradient></defs><defs><linearGradient id="grad1_2" x1="33.3%" y1="0%" x2="100%" y2="100%"><stop offset="20%" stop-color="#d0f2e1" stop-opacity="1"></stop><stop offset="80%" stop-color="#b8ecd2" stop-opacity="1"></stop></linearGradient></defs><defs><linearGradient id="grad1_3" x1="33.3%" y1="0%" x2="100%" y2="100%"><stop offset="20%" stop-color="#d0f2e1" stop-opacity="1"></stop><stop offset="80%" stop-color="#e8f9f0" stop-opacity="1"></stop></linearGradient></defs><defs><linearGradient id="grad1_4" x1="33.3%" y1="0%" x2="100%" y2="100%"><stop offset="20%" stop-color="#ffffff" stop-opacity="1"></stop><stop offset="80%" stop-color="#e8f9f0" stop-opacity="1"></stop></linearGradient></defs><defs><linearGradient id="grad2_0" x1="0%" y1="0%" x2="66.7%" y2="100%"><stop offset="20%" stop-color="#9fe5c3" stop-opacity="1"></stop><stop offset="80%" stop-color="#9fe5c3" stop-opacity="1"></stop></linearGradient></defs><defs><linearGradient id="grad2_1" x1="0%" y1="0%" x2="66.7%" y2="100%"><stop offset="20%" stop-color="#b8ecd2" stop-opacity="1"></stop><stop offset="80%" stop-color="#9fe5c3" stop-opacity="1"></stop></linearGradient></defs><defs><linearGradient id="grad2_2" x1="0%" y1="0%" x2="66.7%" y2="100%"><stop offset="20%" stop-color="#b8ecd2" stop-opacity="1"></stop><stop offset="80%" stop-color="#d0f2e1" stop-opacity="1"></stop></linearGradient></defs><defs><linearGradient id="grad2_3" x1="0%" y1="0%" x2="66.7%" y2="100%"><stop offset="20%" stop-color="#e8f9f0" stop-opacity="1"></stop><stop offset="80%" stop-color="#d0f2e1" stop-opacity="1"></stop></linearGradient></defs><defs><linearGradient id="grad2_4" x1="0%" y1="0%" x2="66.7%" y2="100%"><stop offset="20%" stop-color="#e8f9f0" stop-opacity="1"></stop><stop offset="80%" stop-color="#ffffff" stop-opacity="1"></stop></linearGradient></defs><g transform="translate(900, 0)"><path d="M0 486.7C-45 488.4 -90 490 -126 470.2C-162 450.3 -189 409.1 -221 382.8C-253 356.5 -290.2 345.2 -323.1 323.1C-356.1 301.1 -385 268.3 -401.8 232C-418.7 195.7 -423.5 156 -435.6 116.7C-447.8 77.5 -467.3 38.7 -486.7 0L0 0Z" fill="#f3fcf7"></path><path d="M0 389.4C-36 390.7 -72 392 -100.8 376.1C-129.6 360.3 -151.2 327.3 -176.8 306.2C-202.4 285.2 -232.1 276.2 -258.5 258.5C-284.9 240.9 -308 214.6 -321.5 185.6C-334.9 156.6 -338.8 124.8 -348.5 93.4C-358.2 62 -373.8 31 -389.4 0L0 0Z" fill="#dcf6e8"></path><path d="M0 292C-27 293 -54 294 -75.6 282.1C-97.2 270.2 -113.4 245.4 -132.6 229.7C-151.8 213.9 -174.1 207.1 -193.9 193.9C-213.7 180.7 -231 161 -241.1 139.2C-251.2 117.4 -254.1 93.6 -261.4 70C-268.7 46.5 -280.4 23.2 -292 0L0 0Z" fill="#c4efd9"></path><path d="M0 194.7C-18 195.3 -36 196 -50.4 188.1C-64.8 180.1 -75.6 163.6 -88.4 153.1C-101.2 142.6 -116.1 138.1 -129.3 129.3C-142.5 120.4 -154 107.3 -160.7 92.8C-167.5 78.3 -169.4 62.4 -174.3 46.7C-179.1 31 -186.9 15.5 -194.7 0L0 0Z" fill="#ace8ca"></path><path d="M0 97.3C-9 97.7 -18 98 -25.2 94C-32.4 90.1 -37.8 81.8 -44.2 76.6C-50.6 71.3 -58 69 -64.6 64.6C-71.2 60.2 -77 53.7 -80.4 46.4C-83.7 39.1 -84.7 31.2 -87.1 23.3C-89.6 15.5 -93.5 7.7 -97.3 0L0 0Z" fill="#9fe5c3"></path></g><g transform="translate(0, 600)"><path d="M0 -486.7C45.4 -488.5 90.7 -490.3 126 -470.2C161.2 -450 186.4 -407.9 223 -386.2C259.6 -364.6 307.8 -363.5 341.5 -341.5C375.3 -319.6 394.6 -276.9 410.5 -237C426.4 -197.1 438.9 -159.9 451.1 -120.9C463.2 -81.8 475 -40.9 486.7 0L0 0Z" fill="#f3fcf7"></path><path d="M0 -389.4C36.3 -390.8 72.6 -392.3 100.8 -376.1C129 -360 149.1 -326.3 178.4 -309C207.7 -291.7 246.2 -290.8 273.2 -273.2C300.2 -255.7 315.7 -221.5 328.4 -189.6C341.1 -157.7 351.2 -127.9 360.9 -96.7C370.6 -65.5 380 -32.7 389.4 0L0 0Z" fill="#dcf6e8"></path><path d="M0 -292C27.2 -293.1 54.4 -294.2 75.6 -282.1C96.7 -270 111.8 -244.7 133.8 -231.7C155.8 -218.8 184.7 -218.1 204.9 -204.9C225.2 -191.8 236.7 -166.2 246.3 -142.2C255.8 -118.2 263.4 -95.9 270.7 -72.5C277.9 -49.1 285 -24.5 292 0L0 0Z" fill="#c4efd9"></path><path d="M0 -194.7C18.1 -195.4 36.3 -196.1 50.4 -188.1C64.5 -180 74.5 -163.2 89.2 -154.5C103.9 -145.8 123.1 -145.4 136.6 -136.6C150.1 -127.8 157.8 -110.8 164.2 -94.8C170.6 -78.8 175.6 -64 180.4 -48.3C185.3 -32.7 190 -16.4 194.7 0L0 0Z" fill="#ace8ca"></path><path d="M0 -97.3C9.1 -97.7 18.1 -98.1 25.2 -94C32.2 -90 37.3 -81.6 44.6 -77.2C51.9 -72.9 61.6 -72.7 68.3 -68.3C75.1 -63.9 78.9 -55.4 82.1 -47.4C85.3 -39.4 87.8 -32 90.2 -24.2C92.6 -16.4 95 -8.2 97.3 0L0 0Z" fill="#9fe5c3"></path></g></svg>