<svg xmlns="http://www.w3.org/2000/svg" version="1.1" xmlns:xlink="http://www.w3.org/1999/xlink" xmlns:svgjs="http://svgjs.dev/svgjs" width="1440" height="560" preserveAspectRatio="none" viewBox="0 0 1440 560">
    <g mask="url(&quot;#SvgjsMask1000&quot;)" fill="none">
        <rect width="1440" height="560" x="0" y="0" fill="rgba(202, 233, 218, 1)"></rect>
        <path d="M0,516.706C95.377,515.962,159.89,422.633,247.743,385.495C360.385,337.878,517.461,368.538,587.559,268.329C656.059,170.404,614.466,30.181,575.259,-82.71C540.153,-183.792,452.035,-250.145,380.01,-329.28C309.961,-406.243,258.355,-510.497,158.679,-540.412C58.875,-570.366,-41.147,-509.285,-142.754,-486.174C-252.183,-461.284,-372.332,-468.248,-461.004,-399.462C-557.599,-324.529,-647.64,-215.578,-649.16,-93.335C-650.668,27.928,-545.887,120.536,-468.633,214.017C-407.929,287.472,-330.286,337.677,-250.239,389.379C-169.997,441.207,-95.522,517.451,0,516.706" fill="#b5e0cb"></path>
        <path d="M1440 1098.665C1553.686 1089.184 1675.31 1136.771 1774.848 1081.034 1875.909 1024.445 1941.475 914.271 1969.85 801.9739999999999 1996.097 698.096 1922.7069999999999 597.533 1924.087 490.399 1925.845 353.91200000000003 2036.566 216.72699999999998 1978.98 92.971 1921.4569999999999-30.649 1771.815-86.34900000000005 1639.817-120.51400000000001 1510.276-154.043 1364.519-160.88 1247.257-96.423 1136.26-35.40899999999999 1113.788 110.072 1037.034 210.82799999999997 966.719 303.132 852.915 360.353 815.597 470.224 774.919 589.987 778.199 723.517 822.679 841.921 868.814 964.729 946.095 1089.671 1067.225 1140.049 1185.047 1189.051 1312.835 1109.27 1440 1098.665" fill="#e0f2e9"></path>
    </g>
    <defs>
        <mask id="SvgjsMask1000">
            <rect width="1440" height="560" fill="#ffffff"></rect>
        </mask>
    </defs>
</svg>